<?xml version="1.0" standalone="no"?>
<!DOCTYPE svg PUBLIC "-//W3C//DTD SVG 20010904//EN"
 "http://www.w3.org/TR/2001/REC-SVG-20010904/DTD/svg10.dtd">
<svg version="1.0" xmlns="http://www.w3.org/2000/svg"
 width="572.000000pt" height="572.000000pt" viewBox="0 0 572.000000 572.000000"
 preserveAspectRatio="xMidYMid meet">
<metadata>
Created by potrace 1.14, written by Peter Selinger 2001-2017
</metadata>
<g transform="translate(0.000000,572.000000) scale(0.100000,-0.100000)"
fill="#000000" stroke="none">
<path d="M2737 5714 c-1 -1 -40 -4 -87 -8 -97 -7 -174 -15 -210 -21 -14 -2
-41 -7 -60 -10 -448 -76 -914 -280 -1260 -552 -95 -74 -175 -146 -275 -247
-145 -146 -173 -178 -251 -281 -274 -363 -452 -755 -534 -1180 -17 -83 -17
-88 -25 -145 -4 -30 -9 -63 -10 -72 -20 -105 -25 -536 -7 -547 6 -3 495 -6
1087 -6 l1077 0 39 -75 c164 -313 527 -432 849 -278 110 53 227 167 280 273
19 39 36 72 38 75 2 3 427 5 944 5 l940 0 -6 -60 c-7 -67 -10 -85 -32 -200
-165 -841 -794 -1554 -1609 -1823 -79 -27 -191 -58 -235 -67 -224 -44 -330
-55 -525 -55 -182 -1 -306 11 -490 45 -180 34 -478 141 -643 231 -122 67 -138
77 -232 142 -451 311 -769 732 -941 1247 l-36 110 -222 1 -222 1 6 -31 c14
-64 69 -244 102 -331 199 -519 501 -918 978 -1293 25 -20 196 -132 250 -164
214 -126 483 -239 711 -298 87 -22 101 -25 179 -40 28 -6 61 -12 75 -15 268
-55 739 -49 1025 12 39 8 79 16 89 18 395 83 821 292 1171 574 90 73 306 285
381 376 270 324 454 674 569 1085 23 84 53 217 61 275 2 17 9 57 14 90 22 141
33 575 15 593 -3 3 -526 6 -1161 7 l-1155 0 -37 75 c-55 111 -169 224 -282
278 -212 102 -446 87 -635 -39 -90 -61 -155 -133 -212 -237 l-42 -77 -867 0
-866 0 7 70 c3 38 8 79 10 90 3 11 7 31 9 45 60 351 222 726 439 1016 96 128
131 169 247 284 256 257 575 455 921 574 93 32 288 82 349 90 25 4 56 9 70 11
145 25 377 34 540 21 126 -10 296 -37 375 -58 22 -6 45 -11 50 -12 40 -9 194
-57 235 -74 14 -6 50 -20 80 -32 283 -115 543 -287 775 -514 197 -192 346
-396 471 -646 69 -139 79 -163 129 -310 l42 -125 222 -3 221 -2 -4 22 c-17 97
-101 354 -153 468 -158 352 -340 618 -607 886 -261 262 -544 455 -886 606
-128 57 -394 144 -490 162 -14 2 -46 9 -73 15 -26 6 -62 13 -80 16 -17 2 -49
6 -69 9 -136 21 -241 28 -401 30 -76 1 -139 1 -140 0z"/>
<path d="M2766 4097 c-56 -41 -50 -288 8 -310 62 -24 101 197 50 284 -23 39
-34 44 -58 26z"/>
<path d="M2167 3939 c-53 -30 52 -248 133 -274 79 -25 48 133 -47 235 -38 41
-62 52 -86 39z"/>
<path d="M3364 3935 c-97 -41 -186 -275 -104 -275 50 0 146 137 156 223 7 55
-8 71 -52 52z"/>
<path d="M1726 3494 c-14 -13 -14 -19 -2 -42 45 -85 228 -172 267 -126 32 38
-71 138 -175 169 -62 19 -71 19 -90 -1z"/>
<path d="M3775 3503 c-74 -17 -186 -99 -201 -145 -9 -30 21 -50 65 -43 115 18
256 144 205 182 -18 13 -33 14 -69 6z"/>
<path d="M1904 2425 c-83 -24 -163 -84 -183 -136 -22 -59 44 -65 145 -14 81
40 124 81 127 120 3 36 -31 47 -89 30z"/>
<path d="M3603 2432 c-67 -10 -10 -102 99 -158 90 -46 167 -41 152 10 -20 67
-177 160 -251 148z"/>
<path d="M2285 2075 c-69 -35 -151 -197 -126 -251 13 -30 30 -30 67 -2 41 32
59 56 88 115 29 58 38 109 24 136 -11 21 -15 21 -53 2z"/>
<path d="M3237 2075 c-21 -20 -13 -66 23 -140 46 -96 121 -155 151 -119 35 43
-52 222 -128 262 -27 15 -29 15 -46 -3z"/>
<path d="M2754 1935 c-48 -73 -33 -271 22 -292 69 -26 100 229 37 300 -22 24
-40 21 -59 -8z"/>
</g>
</svg>
